<svg width="349" height="256" viewBox="0 0 349 256" fill="none" xmlns="http://www.w3.org/2000/svg">
<rect x="1.00006" y="1" width="347" height="254" rx="9.05941" fill="white" stroke="white" stroke-width="0.905941"/>
<path d="M281.799 36V32.2929L278.994 27.9009H280.201L282.549 31.5863H282.114L284.452 27.9009H285.658L282.875 32.2929V36H281.799ZM288.203 36.1305C287.638 36.1305 287.134 35.9964 286.692 35.7282C286.25 35.4601 285.902 35.0941 285.648 34.6302C285.395 34.1591 285.268 33.6337 285.268 33.0539C285.268 32.4668 285.391 31.945 285.638 31.4884C285.891 31.0318 286.232 30.6731 286.659 30.4122C287.094 30.144 287.58 30.0099 288.116 30.0099C288.551 30.0099 288.935 30.0896 289.269 30.2491C289.609 30.4013 289.895 30.6115 290.127 30.8796C290.367 31.1405 290.548 31.4413 290.671 31.7819C290.801 32.1153 290.867 32.4632 290.867 32.8256C290.867 32.9053 290.859 32.9959 290.845 33.0974C290.838 33.1916 290.827 33.2822 290.812 33.3691H286.007V32.4994H290.225L289.747 32.8908C289.812 32.5139 289.776 32.1769 289.638 31.8798C289.501 31.5826 289.298 31.3471 289.029 31.1731C288.761 30.9992 288.457 30.9122 288.116 30.9122C287.776 30.9122 287.464 30.9992 287.181 31.1731C286.899 31.3471 286.678 31.5971 286.518 31.9233C286.366 32.2422 286.304 32.6227 286.333 33.0648C286.304 33.4924 286.37 33.8692 286.529 34.1954C286.696 34.5143 286.928 34.7643 287.225 34.9455C287.529 35.1194 287.859 35.2064 288.214 35.2064C288.605 35.2064 288.935 35.1158 289.203 34.9346C289.472 34.7534 289.689 34.5215 289.856 34.2389L290.704 34.6737C290.588 34.9419 290.406 35.1883 290.16 35.413C289.921 35.6304 289.635 35.8043 289.301 35.9348C288.975 36.0652 288.609 36.1305 288.203 36.1305ZM293.828 36.1305C293.444 36.1305 293.103 36.0616 292.806 35.9239C292.516 35.779 292.288 35.5833 292.121 35.3369C291.955 35.0832 291.871 34.7933 291.871 34.4671C291.871 34.1555 291.937 33.8765 292.067 33.6301C292.205 33.3764 292.415 33.1626 292.698 32.9887C292.988 32.8147 293.35 32.6915 293.785 32.619L295.959 32.2603V33.1082L294.013 33.4344C293.636 33.4996 293.361 33.6192 293.187 33.7931C293.02 33.9671 292.937 34.1809 292.937 34.4345C292.937 34.6737 293.031 34.873 293.219 35.0325C293.415 35.1919 293.658 35.2716 293.948 35.2716C294.317 35.2716 294.636 35.1955 294.904 35.0433C295.18 34.8839 295.394 34.6701 295.546 34.4019C295.705 34.1338 295.785 33.8366 295.785 33.5105V32.0211C295.785 31.7022 295.665 31.4449 295.426 31.2492C295.194 31.0463 294.886 30.9449 294.502 30.9449C294.169 30.9449 293.872 31.0318 293.611 31.2058C293.357 31.3725 293.169 31.5971 293.046 31.8798L292.165 31.4232C292.274 31.155 292.448 30.9159 292.687 30.7057C292.926 30.4883 293.205 30.3179 293.524 30.1947C293.843 30.0715 294.176 30.0099 294.524 30.0099C294.973 30.0099 295.368 30.0969 295.709 30.2708C296.05 30.4375 296.314 30.6731 296.503 30.9775C296.698 31.2746 296.796 31.6225 296.796 32.0211V36H295.807V34.8911L295.992 34.9564C295.868 35.1883 295.702 35.3912 295.492 35.5651C295.281 35.7391 295.035 35.8768 294.752 35.9783C294.47 36.0797 294.162 36.1305 293.828 36.1305ZM298.364 36V30.1404H299.353V31.2166L299.244 31.0644C299.382 30.731 299.592 30.4846 299.875 30.3252C300.157 30.1585 300.502 30.0751 300.908 30.0751H301.266V31.0318H300.755C300.342 31.0318 300.009 31.1623 299.755 31.4232C299.502 31.6769 299.375 32.0392 299.375 32.5103V36H298.364ZM302.164 36V27.7704H303.175V36H302.164ZM305.059 38.3917C304.929 38.3917 304.799 38.3808 304.668 38.3591C304.538 38.3446 304.414 38.312 304.298 38.2612V37.3589C304.378 37.3662 304.476 37.3807 304.592 37.4024C304.715 37.4241 304.835 37.435 304.951 37.435C305.291 37.435 305.549 37.3589 305.723 37.2067C305.904 37.0545 306.074 36.7972 306.234 36.4349L306.603 35.5543L306.581 36.4349L304.081 30.1404H305.179L307.125 35.1412H306.799L308.734 30.1404H309.854L307.212 36.6958C307.089 37.0074 306.929 37.2937 306.734 37.5546C306.545 37.8155 306.313 38.0184 306.038 38.1634C305.762 38.3156 305.436 38.3917 305.059 38.3917Z" fill="#18181B"/>
<path d="M325.427 29.5681L321.728 33.2673L318.029 29.5681" stroke="#18181B" stroke-width="0.905941" stroke-linecap="round" stroke-linejoin="round"/>
<path fill-rule="evenodd" clip-rule="evenodd" d="M25.485 210.077C25.485 208.826 26.499 207.812 27.7498 207.812H323.992C325.243 207.812 326.257 208.826 326.257 210.077C326.257 211.328 325.243 212.342 323.992 212.342H27.7498C26.499 212.342 25.485 211.328 25.485 210.077Z" fill="#F4F4F5"/>
<path d="M26.4651 195.54V186.766H27.6193V195.54H26.4651ZM29.4409 195.54V189.192H30.5126V190.428L30.3359 190.322C30.493 189.922 30.7442 189.612 31.0897 189.392C31.443 189.164 31.8552 189.05 32.3263 189.05C32.7817 189.05 33.186 189.152 33.5393 189.357C33.9005 189.561 34.1832 189.843 34.3873 190.205C34.5993 190.566 34.7053 190.974 34.7053 191.429V195.54H33.5982V191.783C33.5982 191.429 33.5354 191.131 33.4098 190.888C33.2842 190.644 33.1036 190.456 32.868 190.322C32.6403 190.181 32.3773 190.11 32.079 190.11C31.7806 190.11 31.5137 190.181 31.2781 190.322C31.0504 190.456 30.8698 190.648 30.7364 190.899C30.6029 191.143 30.5361 191.437 30.5361 191.783V195.54H29.4409ZM37.9241 195.54L35.4392 189.192H36.664L38.6543 194.562H38.2304L40.2325 189.192H41.4573L38.9605 195.54H37.9241ZM42.4372 195.54V189.192H43.5325V195.54H42.4372ZM42.4372 188.179V186.766H43.5325V188.179H42.4372ZM47.8112 195.61C47.191 195.61 46.712 195.434 46.3744 195.08C46.0446 194.727 45.8798 194.228 45.8798 193.585V190.24H44.7256V189.192H44.9611C45.2438 189.192 45.4676 189.105 45.6324 188.933C45.7973 188.76 45.8798 188.532 45.8798 188.25V187.731H46.975V189.192H48.4001V190.24H46.975V193.549C46.975 193.761 47.0064 193.946 47.0693 194.103C47.1399 194.26 47.2538 194.385 47.4108 194.48C47.5678 194.566 47.7759 194.609 48.035 194.609C48.09 194.609 48.1567 194.605 48.2352 194.597C48.3216 194.59 48.4001 194.582 48.4707 194.574V195.54C48.3687 195.563 48.2548 195.579 48.1292 195.587C48.0036 195.602 47.8976 195.61 47.8112 195.61ZM52.6497 195.681C52.0373 195.681 51.4916 195.536 51.0127 195.245C50.5338 194.955 50.1569 194.558 49.8821 194.056C49.6073 193.545 49.4699 192.976 49.4699 192.348C49.4699 191.712 49.6034 191.147 49.8703 190.652C50.1451 190.157 50.5141 189.769 50.9774 189.486C51.4485 189.196 51.9745 189.05 52.5555 189.05C53.0266 189.05 53.4427 189.137 53.8039 189.309C54.1729 189.474 54.4831 189.702 54.7343 189.993C54.9934 190.275 55.1897 190.601 55.3232 190.97C55.4645 191.331 55.5352 191.708 55.5352 192.101C55.5352 192.187 55.5273 192.285 55.5116 192.395C55.5037 192.497 55.492 192.595 55.4763 192.69H50.2707V191.747H54.8403L54.3221 192.171C54.3928 191.763 54.3535 191.398 54.2043 191.076C54.0551 190.754 53.8353 190.499 53.5448 190.311C53.2543 190.122 52.9245 190.028 52.5555 190.028C52.1865 190.028 51.8489 190.122 51.5427 190.311C51.2365 190.499 50.997 190.77 50.8243 191.123C50.6594 191.469 50.5926 191.881 50.624 192.36C50.5926 192.823 50.6633 193.231 50.836 193.585C51.0166 193.93 51.2679 194.201 51.5898 194.397C51.9195 194.586 52.2768 194.68 52.6615 194.68C53.0855 194.68 53.4427 194.582 53.7332 194.385C54.0237 194.189 54.2593 193.938 54.4399 193.632L55.3585 194.103C55.2329 194.393 55.0366 194.66 54.7696 194.904C54.5105 195.139 54.2004 195.328 53.8392 195.469C53.4859 195.61 53.0894 195.681 52.6497 195.681ZM63.3212 195.681C62.7009 195.681 62.1199 195.571 61.5782 195.351C61.0364 195.123 60.5614 194.805 60.1531 194.397C59.7527 193.989 59.4386 193.51 59.2109 192.96C58.9832 192.403 58.8694 191.798 58.8694 191.147C58.8694 190.487 58.9832 189.883 59.2109 189.333C59.4386 188.783 59.7527 188.304 60.1531 187.896C60.5614 187.488 61.0325 187.174 61.5664 186.954C62.1081 186.734 62.6931 186.624 63.3212 186.624C63.9493 186.624 64.5303 186.738 65.0642 186.966C65.606 187.186 66.0771 187.5 66.4775 187.908C66.8858 188.308 67.2037 188.783 67.4314 189.333C67.667 189.883 67.7848 190.487 67.7848 191.147C67.7848 191.798 67.667 192.403 67.4314 192.96C67.2037 193.51 66.8858 193.989 66.4775 194.397C66.0771 194.805 65.606 195.123 65.0642 195.351C64.5303 195.571 63.9493 195.681 63.3212 195.681ZM63.3212 194.609C63.808 194.609 64.2516 194.523 64.652 194.35C65.0524 194.17 65.3979 193.922 65.6884 193.608C65.9868 193.286 66.2145 192.917 66.3715 192.501C66.5364 192.077 66.6188 191.626 66.6188 191.147C66.6188 190.668 66.5364 190.22 66.3715 189.804C66.2145 189.388 65.9868 189.023 65.6884 188.709C65.3979 188.387 65.0524 188.14 64.652 187.967C64.2516 187.786 63.808 187.696 63.3212 187.696C62.8422 187.696 62.4026 187.786 62.0021 187.967C61.6017 188.14 61.2523 188.387 60.954 188.709C60.6635 189.023 60.4358 189.388 60.2709 189.804C60.106 190.22 60.0236 190.668 60.0236 191.147C60.0236 191.626 60.106 192.077 60.2709 192.501C60.4358 192.917 60.6635 193.286 60.954 193.608C61.2523 193.922 61.6017 194.17 62.0021 194.35C62.4026 194.523 62.8422 194.609 63.3212 194.609ZM69.3385 195.54V189.192H70.4103V190.428L70.2336 190.322C70.3906 189.922 70.6419 189.612 70.9873 189.392C71.3407 189.164 71.7529 189.05 72.2239 189.05C72.6793 189.05 73.0837 189.152 73.437 189.357C73.7982 189.561 74.0808 189.843 74.285 190.205C74.497 190.566 74.6029 190.974 74.6029 191.429V195.54H73.4959V191.783C73.4959 191.429 73.4331 191.131 73.3075 190.888C73.1818 190.644 73.0012 190.456 72.7657 190.322C72.538 190.181 72.275 190.11 71.9766 190.11C71.6783 190.11 71.4113 190.181 71.1758 190.322C70.9481 190.456 70.7675 190.648 70.634 190.899C70.5005 191.143 70.4338 191.437 70.4338 191.783V195.54H69.3385ZM76.1702 195.54V186.624H77.2655V195.54H76.1702ZM79.3066 198.131C79.1652 198.131 79.0239 198.119 78.8826 198.095C78.7413 198.08 78.6078 198.044 78.4822 197.989V197.012C78.5685 197.02 78.6745 197.035 78.8001 197.059C78.9336 197.082 79.0632 197.094 79.1888 197.094C79.5578 197.094 79.8365 197.012 80.025 196.847C80.2213 196.682 80.4058 196.403 80.5785 196.011L80.9789 195.057L80.9554 196.011L78.2466 189.192H79.4361L81.5442 194.609H81.1909L83.2873 189.192H84.5003L81.6385 196.293C81.505 196.631 81.3323 196.941 81.1203 197.224C80.9161 197.506 80.6649 197.726 80.3665 197.883C80.0682 198.048 79.7148 198.131 79.3066 198.131Z" fill="#18181B"/>
<path d="M316.376 196.446V194.42H312.065V193.466L316.352 187.671H317.459V193.466H318.602V194.42H317.459V196.446H316.376ZM312.937 193.878L312.772 193.466H316.376V188.637L316.717 188.731L312.937 193.878ZM322.532 196.587C322.068 196.587 321.636 196.504 321.236 196.34C320.836 196.175 320.49 195.943 320.2 195.645C319.909 195.338 319.693 194.977 319.552 194.561L320.529 194.161C320.694 194.6 320.953 194.942 321.307 195.185C321.66 195.429 322.068 195.55 322.532 195.55C322.893 195.55 323.215 195.48 323.497 195.338C323.78 195.197 324 194.993 324.157 194.726C324.322 194.459 324.404 194.137 324.404 193.76C324.404 193.376 324.322 193.054 324.157 192.795C324 192.528 323.78 192.323 323.497 192.182C323.215 192.041 322.889 191.97 322.52 191.97C322.402 191.97 322.272 191.978 322.131 191.994C321.998 192.009 321.884 192.033 321.79 192.064L321.542 191.534L323.886 188.673H319.999V187.671H325.193V188.637L322.956 191.393L322.885 191.087C323.411 191.103 323.874 191.224 324.275 191.452C324.675 191.68 324.989 191.99 325.217 192.382C325.444 192.767 325.558 193.219 325.558 193.737C325.558 194.271 325.429 194.754 325.17 195.185C324.911 195.617 324.553 195.959 324.098 196.21C323.643 196.461 323.12 196.587 322.532 196.587Z" fill="#18181B"/>
<path fill-rule="evenodd" clip-rule="evenodd" d="M25.0001 210C25.0001 208.895 25.8955 208 27.0001 208H88.0001C89.1047 208 90.0001 208.895 90.0001 210C90.0001 211.105 89.1047 212 88.0001 212H27.0001C25.8955 212 25.0001 211.105 25.0001 210Z" fill="#4F46E5"/>
<path fill-rule="evenodd" clip-rule="evenodd" d="M25.485 157.532C25.485 156.281 26.499 155.267 27.7498 155.267H323.992C325.243 155.267 326.257 156.281 326.257 157.532C326.257 158.783 325.243 159.797 323.992 159.797H27.7498C26.499 159.797 25.485 158.783 25.485 157.532Z" fill="#F4F4F5"/>
<path d="M26.465 142.995V134.221H29.5624C30.1434 134.221 30.6538 134.331 31.0934 134.551C31.5331 134.771 31.8747 135.085 32.1181 135.493C32.3693 135.901 32.4949 136.38 32.4949 136.93C32.4949 137.479 32.3693 137.958 32.1181 138.367C31.8747 138.767 31.5331 139.081 31.0934 139.309C30.6616 139.529 30.1513 139.639 29.5624 139.639H27.6192V142.995H26.465ZM27.6192 138.579H29.5977C29.9511 138.579 30.2573 138.512 30.5164 138.378C30.7755 138.245 30.9757 138.053 31.117 137.801C31.2583 137.55 31.329 137.26 31.329 136.93C31.329 136.592 31.2583 136.302 31.117 136.058C30.9757 135.807 30.7755 135.615 30.5164 135.481C30.2573 135.348 29.9511 135.281 29.5977 135.281H27.6192V138.579ZM36.1757 143.136C35.7203 143.136 35.3081 143.03 34.9391 142.818C34.5779 142.606 34.2953 142.312 34.0911 141.935C33.8948 141.55 33.7967 141.111 33.7967 140.616V136.647H34.892V140.498C34.892 140.812 34.9548 141.087 35.0804 141.323C35.2139 141.558 35.3945 141.743 35.6222 141.876C35.8577 142.01 36.1247 142.076 36.423 142.076C36.7214 142.076 36.9844 142.01 37.2121 141.876C37.4476 141.743 37.6282 141.55 37.7538 141.299C37.8873 141.048 37.9541 140.75 37.9541 140.404V136.647H39.0611V142.995H37.9894V141.758L38.166 141.864C38.0169 142.265 37.7617 142.579 37.4005 142.807C37.0472 143.026 36.6389 143.136 36.1757 143.136ZM44.0438 143.136C43.5335 143.136 43.0663 143.023 42.6423 142.795C42.2262 142.567 41.9043 142.245 41.6766 141.829L41.8297 141.641V142.995H40.758V134.08H41.8532V138.013L41.6884 137.742C41.9239 137.366 42.2458 137.067 42.6541 136.847C43.0624 136.62 43.5295 136.506 44.0556 136.506C44.6523 136.506 45.1862 136.651 45.6573 136.942C46.1362 137.232 46.5131 137.629 46.7879 138.131C47.0627 138.626 47.2001 139.191 47.2001 139.827C47.2001 140.447 47.0627 141.009 46.7879 141.511C46.5131 142.014 46.1362 142.41 45.6573 142.701C45.1862 142.991 44.6484 143.136 44.0438 143.136ZM43.9614 142.076C44.3618 142.076 44.719 141.978 45.0331 141.782C45.3471 141.586 45.5905 141.319 45.7633 140.981C45.9439 140.636 46.0342 140.251 46.0342 139.827C46.0342 139.387 45.9439 139.003 45.7633 138.673C45.5905 138.335 45.3471 138.068 45.0331 137.872C44.719 137.668 44.3618 137.566 43.9614 137.566C43.5609 137.566 43.1998 137.664 42.8779 137.86C42.5638 138.056 42.3125 138.327 42.1241 138.673C41.9435 139.01 41.8532 139.395 41.8532 139.827C41.8532 140.251 41.9435 140.636 42.1241 140.981C42.3125 141.319 42.5638 141.586 42.8779 141.782C43.1998 141.978 43.5609 142.076 43.9614 142.076ZM48.6363 142.995V134.08H49.7316V142.995H48.6363ZM51.4311 142.995V136.647H52.5263V142.995H51.4311ZM51.4311 135.634V134.221H52.5263V135.634H51.4311ZM57.1702 143.136C56.5499 143.136 55.9964 142.991 55.5096 142.701C55.0306 142.41 54.6538 142.014 54.379 141.511C54.1042 141.009 53.9668 140.443 53.9668 139.815C53.9668 139.179 54.1042 138.614 54.379 138.119C54.6538 137.625 55.0306 137.232 55.5096 136.942C55.9964 136.651 56.5499 136.506 57.1702 136.506C57.5863 136.506 57.9749 136.58 58.3361 136.73C58.6973 136.879 59.0153 137.079 59.2901 137.33C59.5649 137.581 59.7651 137.876 59.8907 138.214L58.9132 138.685C58.764 138.355 58.5363 138.088 58.2301 137.884C57.9239 137.672 57.5706 137.566 57.1702 137.566C56.7854 137.566 56.4361 137.664 56.122 137.86C55.8158 138.056 55.5724 138.323 55.3918 138.661C55.2112 138.999 55.1209 139.387 55.1209 139.827C55.1209 140.251 55.2112 140.636 55.3918 140.981C55.5724 141.319 55.8158 141.586 56.122 141.782C56.4361 141.978 56.7854 142.076 57.1702 142.076C57.5706 142.076 57.9239 141.974 58.2301 141.77C58.5363 141.558 58.764 141.28 58.9132 140.934L59.8907 141.429C59.7651 141.758 59.5649 142.053 59.2901 142.312C59.0153 142.563 58.6973 142.763 58.3361 142.913C57.9749 143.062 57.5863 143.136 57.1702 143.136Z" fill="#18181B"/>
<path d="M315.494 144.042C314.929 144.042 314.426 143.917 313.987 143.665C313.555 143.414 313.213 143.073 312.962 142.641C312.711 142.201 312.585 141.703 312.585 141.145C312.585 140.839 312.621 140.537 312.691 140.238C312.762 139.94 312.876 139.638 313.033 139.331C313.19 139.025 313.39 138.707 313.633 138.377L316.107 135.127H317.496L314.47 139.061L314.258 139.037C314.375 138.88 314.505 138.758 314.646 138.672C314.795 138.586 314.953 138.523 315.117 138.483C315.29 138.444 315.471 138.425 315.659 138.425C316.177 138.425 316.641 138.546 317.049 138.79C317.465 139.025 317.791 139.351 318.026 139.767C318.27 140.183 318.391 140.662 318.391 141.204C318.391 141.746 318.266 142.233 318.015 142.664C317.763 143.088 317.418 143.426 316.978 143.677C316.546 143.921 316.052 144.042 315.494 144.042ZM315.494 143.006C315.824 143.006 316.118 142.931 316.378 142.782C316.637 142.625 316.841 142.409 316.99 142.134C317.147 141.86 317.226 141.553 317.226 141.216C317.226 140.862 317.151 140.556 317.002 140.297C316.853 140.03 316.648 139.818 316.389 139.661C316.13 139.504 315.832 139.426 315.494 139.426C315.165 139.426 314.866 139.504 314.599 139.661C314.332 139.818 314.124 140.03 313.975 140.297C313.826 140.556 313.751 140.862 313.751 141.216C313.751 141.553 313.826 141.86 313.975 142.134C314.132 142.409 314.34 142.625 314.599 142.782C314.866 142.931 315.165 143.006 315.494 143.006ZM322.533 144.042C322.077 144.042 321.649 143.964 321.249 143.807C320.849 143.642 320.499 143.41 320.201 143.112C319.91 142.806 319.698 142.448 319.565 142.04L320.507 141.64C320.672 142.072 320.939 142.409 321.308 142.653C321.685 142.888 322.093 143.006 322.533 143.006C322.894 143.006 323.212 142.927 323.487 142.77C323.769 142.606 323.989 142.382 324.146 142.099C324.303 141.809 324.382 141.487 324.382 141.133C324.382 140.764 324.299 140.438 324.134 140.156C323.977 139.873 323.761 139.653 323.487 139.496C323.212 139.331 322.898 139.249 322.545 139.249C322.183 139.249 321.854 139.331 321.555 139.496C321.257 139.661 321.041 139.869 320.907 140.121L319.977 139.92L320.648 135.127H325.194V136.128H321.084L321.532 135.68L321.013 139.402L320.613 139.167C320.872 138.837 321.174 138.601 321.52 138.46C321.873 138.311 322.254 138.236 322.662 138.236C323.235 138.236 323.738 138.366 324.17 138.625C324.602 138.884 324.939 139.229 325.183 139.661C325.426 140.093 325.548 140.584 325.548 141.133C325.548 141.683 325.414 142.178 325.147 142.617C324.888 143.057 324.531 143.406 324.076 143.665C323.628 143.917 323.114 144.042 322.533 144.042Z" fill="#18181B"/>
<path fill-rule="evenodd" clip-rule="evenodd" d="M25.4875 157.593C25.4864 156.342 26.4995 155.327 27.7504 155.326L141.393 155.224C142.644 155.223 143.658 156.236 143.66 157.487C143.661 158.738 142.648 159.753 141.397 159.754L27.7544 159.856C26.5036 159.857 25.4887 158.844 25.4875 157.593Z" fill="#4F46E5"/>
<path d="M27.9961 90.4505V82.7364H25.6171V81.6765H31.5057V82.7364H29.1621V90.4505H27.9961ZM34.6756 90.5918C34.0632 90.5918 33.5096 90.4505 33.015 90.1678C32.5203 89.8773 32.1278 89.4808 31.8373 88.9783C31.5467 88.4759 31.4015 87.9066 31.4015 87.2706C31.4015 86.6347 31.5428 86.0694 31.8255 85.5747C32.116 85.0801 32.5086 84.6875 33.0032 84.397C33.4978 84.1065 34.0553 83.9612 34.6756 83.9612C35.288 83.9612 35.8415 84.1065 36.3362 84.397C36.8308 84.6797 37.2194 85.0683 37.5021 85.563C37.7926 86.0576 37.9379 86.6268 37.9379 87.2706C37.9379 87.9145 37.7887 88.4876 37.4903 88.9901C37.192 89.4848 36.7955 89.8773 36.3008 90.1678C35.814 90.4505 35.2723 90.5918 34.6756 90.5918ZM34.6756 89.5319C35.0681 89.5319 35.4215 89.4337 35.7355 89.2374C36.0574 89.0412 36.3087 88.7703 36.4893 88.4248C36.6777 88.0794 36.7719 87.6946 36.7719 87.2706C36.7719 86.8388 36.6777 86.458 36.4893 86.1283C36.3087 85.7906 36.0574 85.5237 35.7355 85.3274C35.4215 85.1233 35.0681 85.0212 34.6756 85.0212C34.2751 85.0212 33.914 85.1233 33.5921 85.3274C33.278 85.5237 33.0268 85.7906 32.8383 86.1283C32.6499 86.458 32.5557 86.8388 32.5557 87.2706C32.5557 87.6946 32.6499 88.0794 32.8383 88.4248C33.0268 88.7703 33.278 89.0412 33.5921 89.2374C33.914 89.4337 34.2751 89.5319 34.6756 89.5319ZM41.8306 90.5212C41.2103 90.5212 40.7314 90.3445 40.3938 89.9912C40.064 89.6379 39.8991 89.1393 39.8991 88.4955V85.1507H38.745V84.1026H38.9805C39.2632 84.1026 39.4869 84.0162 39.6518 83.8435C39.8167 83.6707 39.8991 83.443 39.8991 83.1604V82.6422H40.9944V84.1026H42.4195V85.1507H40.9944V88.4601C40.9944 88.6721 41.0258 88.8566 41.0886 89.0137C41.1593 89.1707 41.2731 89.2963 41.4302 89.3905C41.5872 89.4769 41.7953 89.5201 42.0544 89.5201C42.1093 89.5201 42.1761 89.5162 42.2546 89.5083C42.3409 89.5005 42.4195 89.4926 42.4901 89.4848V90.4505C42.3881 90.4741 42.2742 90.4898 42.1486 90.4976C42.023 90.5133 41.917 90.5212 41.8306 90.5212ZM45.7012 90.5918C45.285 90.5918 44.916 90.5172 44.5941 90.3681C44.28 90.211 44.0327 89.999 43.8521 89.7321C43.6716 89.4573 43.5813 89.1432 43.5813 88.7899C43.5813 88.4523 43.6519 88.15 43.7933 87.8831C43.9424 87.6083 44.1701 87.3766 44.4763 87.1882C44.7904 86.9998 45.183 86.8663 45.6541 86.7878L48.0095 86.3991V87.3178L45.9014 87.6711C45.4931 87.7417 45.1947 87.8713 45.0063 88.0597C44.8257 88.2482 44.7354 88.4798 44.7354 88.7546C44.7354 89.0137 44.8375 89.2296 45.0416 89.4023C45.2536 89.5751 45.5167 89.6614 45.8307 89.6614C46.2311 89.6614 46.5766 89.579 46.8671 89.4141C47.1655 89.2414 47.3971 89.0098 47.562 88.7192C47.7347 88.4287 47.8211 88.1068 47.8211 87.7535V86.14C47.8211 85.7946 47.6915 85.5158 47.4324 85.3039C47.1812 85.084 46.8475 84.9741 46.4314 84.9741C46.0702 84.9741 45.7483 85.0683 45.4656 85.2567C45.1908 85.4373 44.9867 85.6807 44.8532 85.9869L43.8993 85.4923C44.017 85.2018 44.2055 84.9427 44.4646 84.715C44.7237 84.4794 45.0259 84.2949 45.3714 84.1615C45.7169 84.028 46.078 83.9612 46.4549 83.9612C46.9417 83.9612 47.3696 84.0555 47.7386 84.2439C48.1076 84.4245 48.3942 84.6797 48.5984 85.0094C48.8104 85.3313 48.9164 85.7082 48.9164 86.14V90.4505H47.8446V89.2492L48.0448 89.3199C47.9114 89.5711 47.7308 89.791 47.5031 89.9794C47.2754 90.1678 47.0084 90.317 46.7022 90.4269C46.396 90.5369 46.0623 90.5918 45.7012 90.5918ZM50.6146 90.4505V81.5351H51.7099V90.4505H50.6146Z" fill="#18181B"/>
<path fill-rule="evenodd" clip-rule="evenodd" d="M25.485 105.532C25.485 104.281 26.499 103.267 27.7498 103.267H323.992C325.243 103.267 326.257 104.281 326.257 105.532C326.257 106.783 325.243 107.797 323.992 107.797H27.7498C26.499 107.797 25.485 106.783 25.485 105.532Z" fill="#F4F4F5"/>
<path fill-rule="evenodd" clip-rule="evenodd" d="M25.4876 105.593C25.4865 104.342 26.4996 103.327 27.7504 103.326L141.393 103.224C142.644 103.223 143.659 104.236 143.66 105.487C143.661 106.738 142.648 107.753 141.397 107.754L27.7545 107.856C26.5036 107.857 25.4887 106.844 25.4876 105.593Z" fill="#4F46E5"/>
<path fill-rule="evenodd" clip-rule="evenodd" d="M25.485 105.532C25.485 104.281 26.499 103.267 27.7498 103.267H323.992C325.243 103.267 326.257 104.281 326.257 105.532C326.257 106.783 325.243 107.797 323.992 107.797H27.7498C26.499 107.797 25.485 106.783 25.485 105.532Z" fill="#F4F4F5"/>
<path fill-rule="evenodd" clip-rule="evenodd" d="M25.4876 105.593C25.4865 104.342 26.4996 103.327 27.7504 103.326L244.742 103.131C245.993 103.13 247.008 104.143 247.009 105.394C247.01 106.645 245.997 107.66 244.746 107.661L27.7545 107.856C26.5036 107.857 25.4887 106.844 25.4876 105.593Z" fill="#4F46E5"/>
<path d="M307.927 91.3564V83.5835H306.267V82.5824H309.093V91.3564H307.927ZM314.603 91.4978C313.904 91.4978 313.292 91.3093 312.766 90.9325C312.248 90.5477 311.843 90.0178 311.553 89.3425C311.262 88.6595 311.117 87.8665 311.117 86.9635C311.117 86.0606 311.262 85.2715 311.553 84.5963C311.843 83.9132 312.248 83.3833 312.766 83.0064C313.284 82.6295 313.893 82.4411 314.591 82.4411C315.29 82.4411 315.899 82.6295 316.417 83.0064C316.935 83.3833 317.339 83.9132 317.63 84.5963C317.928 85.2715 318.078 86.0606 318.078 86.9635C318.078 87.8665 317.932 88.6595 317.642 89.3425C317.351 90.0256 316.943 90.5556 316.417 90.9325C315.899 91.3093 315.294 91.4978 314.603 91.4978ZM314.603 90.426C315.074 90.426 315.483 90.2847 315.828 90.0021C316.174 89.7116 316.44 89.3072 316.629 88.789C316.825 88.2708 316.923 87.6623 316.923 86.9635C316.923 86.2648 316.825 85.6563 316.629 85.1381C316.44 84.6199 316.17 84.2194 315.816 83.9368C315.471 83.6541 315.063 83.5128 314.591 83.5128C314.12 83.5128 313.712 83.6541 313.367 83.9368C313.021 84.2194 312.75 84.6199 312.554 85.1381C312.366 85.6563 312.271 86.2648 312.271 86.9635C312.271 87.6545 312.366 88.259 312.554 88.7772C312.75 89.2954 313.021 89.6998 313.367 89.9903C313.72 90.2808 314.132 90.426 314.603 90.426ZM322.56 91.4978C321.971 91.4978 321.449 91.38 320.994 91.1445C320.546 90.9089 320.193 90.5909 319.934 90.1905C319.683 89.7822 319.557 89.3268 319.557 88.8243C319.557 88.259 319.714 87.7644 320.028 87.3404C320.342 86.9164 320.774 86.6141 321.324 86.4336L321.3 86.728C320.884 86.5631 320.558 86.3001 320.323 85.9389C320.095 85.5699 319.981 85.1734 319.981 84.7494C319.981 84.3019 320.091 83.9054 320.311 83.5599C320.539 83.2145 320.845 82.9436 321.23 82.7473C321.622 82.5432 322.066 82.4411 322.56 82.4411C323.055 82.4411 323.495 82.5392 323.879 82.7355C324.264 82.9318 324.566 83.2066 324.786 83.5599C325.014 83.9054 325.128 84.3019 325.128 84.7494C325.128 85.197 325.006 85.5974 324.763 85.9507C324.527 86.304 324.213 86.567 323.82 86.7398L323.785 86.4336C324.343 86.6141 324.778 86.9204 325.092 87.3522C325.406 87.7762 325.564 88.2669 325.564 88.8243C325.564 89.3268 325.434 89.7822 325.175 90.1905C324.924 90.5909 324.57 90.9089 324.115 91.1445C323.667 91.38 323.149 91.4978 322.56 91.4978ZM322.56 90.4967C322.929 90.4967 323.251 90.426 323.526 90.2847C323.801 90.1434 324.013 89.9471 324.162 89.6959C324.319 89.4368 324.398 89.1423 324.398 88.8126C324.398 88.475 324.319 88.1805 324.162 87.9293C324.013 87.6702 323.801 87.4739 323.526 87.3404C323.251 87.1991 322.929 87.1284 322.56 87.1284C322.191 87.1284 321.865 87.1991 321.583 87.3404C321.308 87.4739 321.096 87.6702 320.947 87.9293C320.798 88.1805 320.723 88.475 320.723 88.8126C320.723 89.1423 320.798 89.4368 320.947 89.6959C321.096 89.9471 321.308 90.1434 321.583 90.2847C321.865 90.426 322.191 90.4967 322.56 90.4967ZM322.56 86.1274C322.827 86.1274 323.063 86.0685 323.267 85.9507C323.479 85.8329 323.648 85.6759 323.773 85.4796C323.899 85.2755 323.962 85.0399 323.962 84.773C323.962 84.506 323.899 84.2744 323.773 84.0781C323.648 83.8818 323.479 83.7287 323.267 83.6188C323.063 83.501 322.827 83.4421 322.56 83.4421C322.286 83.4421 322.042 83.501 321.83 83.6188C321.618 83.7287 321.449 83.8818 321.324 84.0781C321.198 84.2744 321.135 84.506 321.135 84.773C321.135 85.0399 321.198 85.2755 321.324 85.4796C321.449 85.6759 321.618 85.8329 321.83 85.9507C322.042 86.0685 322.286 86.1274 322.56 86.1274Z" fill="#18181B"/>
<path d="M26.5289 36.3762V25.5774H28.0653L34.0083 33.5787L33.2111 33.7381V25.5774H35.1824V36.3762H33.6314L27.7754 28.317L28.5002 28.1575V36.3762H26.5289ZM38.012 36.3762V34.3469H39.9254V36.3762H38.012ZM46.4471 36.5502C45.674 36.5502 44.9686 36.3714 44.3308 36.0138C43.7027 35.6563 43.2002 35.1683 42.8233 34.5498C42.4561 33.9314 42.2725 33.226 42.2725 32.4336C42.2725 31.6412 42.4561 30.9357 42.8233 30.3173C43.2002 29.6988 43.7027 29.2108 44.3308 28.8533C44.959 28.4957 45.6644 28.317 46.4471 28.317C47.2202 28.317 47.9208 28.4957 48.5489 28.8533C49.177 29.2108 49.6747 29.6988 50.0419 30.3173C50.4188 30.9261 50.6072 31.6315 50.6072 32.4336C50.6072 33.226 50.4188 33.9314 50.0419 34.5498C49.665 35.1683 49.1625 35.6563 48.5344 36.0138C47.9063 36.3714 47.2105 36.5502 46.4471 36.5502ZM46.4471 34.8108C46.8723 34.8108 47.2443 34.7093 47.5632 34.5064C47.8918 34.3034 48.1479 34.0232 48.3315 33.6656C48.5247 33.2984 48.6214 32.8877 48.6214 32.4336C48.6214 31.9697 48.5247 31.5639 48.3315 31.216C48.1479 30.8584 47.8918 30.5782 47.5632 30.3753C47.2443 30.1627 46.8723 30.0564 46.4471 30.0564C46.0123 30.0564 45.6306 30.1627 45.302 30.3753C44.9734 30.5782 44.7125 30.8584 44.5193 31.216C44.3357 31.5639 44.2439 31.9697 44.2439 32.4336C44.2439 32.8877 44.3357 33.2984 44.5193 33.6656C44.7125 34.0232 44.9734 34.3034 45.302 34.5064C45.6306 34.7093 46.0123 34.8108 46.4471 34.8108ZM58.4791 36.5502C57.7061 36.5502 57.0006 36.3714 56.3629 36.0138C55.7347 35.6563 55.2322 35.1683 54.8554 34.5498C54.4882 33.9314 54.3046 33.226 54.3046 32.4336C54.3046 31.6412 54.4882 30.9357 54.8554 30.3173C55.2322 29.6988 55.7347 29.2108 56.3629 28.8533C56.991 28.4957 57.6964 28.317 58.4791 28.317C59.2522 28.317 59.9528 28.4957 60.5809 28.8533C61.209 29.2108 61.7067 29.6988 62.0739 30.3173C62.4508 30.9261 62.6392 31.6315 62.6392 32.4336C62.6392 33.226 62.4508 33.9314 62.0739 34.5498C61.697 35.1683 61.1945 35.6563 60.5664 36.0138C59.9383 36.3714 59.2425 36.5502 58.4791 36.5502ZM58.4791 34.8108C58.9043 34.8108 59.2764 34.7093 59.5953 34.5064C59.9238 34.3034 60.1799 34.0232 60.3635 33.6656C60.5568 33.2984 60.6534 32.8877 60.6534 32.4336C60.6534 31.9697 60.5568 31.5639 60.3635 31.216C60.1799 30.8584 59.9238 30.5782 59.5953 30.3753C59.2764 30.1627 58.9043 30.0564 58.4791 30.0564C58.0443 30.0564 57.6626 30.1627 57.334 30.3753C57.0055 30.5782 56.7446 30.8584 56.5513 31.216C56.3677 31.5639 56.2759 31.9697 56.2759 32.4336C56.2759 32.8877 56.3677 33.2984 56.5513 33.6656C56.7446 34.0232 57.0055 34.3034 57.334 34.5064C57.6626 34.7093 58.0443 34.8108 58.4791 34.8108ZM64.8225 36.3762V30.1868H63.431V28.4909H64.8225V28.23C64.8225 27.6309 64.9433 27.1235 65.1849 26.708C65.4362 26.2828 65.784 25.9591 66.2286 25.7369C66.6731 25.5146 67.1997 25.4035 67.8085 25.4035C67.9245 25.4035 68.0501 25.4131 68.1854 25.4325C68.3303 25.4421 68.4511 25.4566 68.5478 25.4759V27.1139C68.4511 27.0946 68.3593 27.0849 68.2724 27.0849C68.195 27.0752 68.1226 27.0704 68.0549 27.0704C67.6297 27.0704 67.3012 27.167 67.0693 27.3603C66.8373 27.5439 66.7214 27.8338 66.7214 28.23V28.4909H68.4753V30.1868H66.7214V36.3762H64.8225ZM77.6069 36.5502C76.8339 36.5502 76.1188 36.41 75.4617 36.1298C74.8142 35.8496 74.2441 35.4582 73.7513 34.9557C73.2681 34.4532 72.8912 33.8637 72.6206 33.1873C72.3501 32.5109 72.2148 31.7716 72.2148 30.9696C72.2148 30.1675 72.3452 29.4283 72.6061 28.7518C72.8767 28.0657 73.2536 27.4763 73.7368 26.9834C74.2296 26.4809 74.8046 26.0944 75.4617 25.8238C76.1188 25.5436 76.8339 25.4035 77.6069 25.4035C78.38 25.4035 79.0709 25.5339 79.6797 25.7948C80.2982 26.0557 80.82 26.4036 81.2452 26.8385C81.6704 27.2637 81.9748 27.7323 82.1584 28.2445L80.39 29.0707C80.1871 28.5296 79.844 28.0851 79.3608 27.7372C78.8777 27.3796 78.293 27.2009 77.6069 27.2009C76.9305 27.2009 76.3314 27.3603 75.8096 27.6792C75.2974 27.9981 74.8964 28.4378 74.6065 28.9982C74.3262 29.5587 74.1861 30.2158 74.1861 30.9696C74.1861 31.7233 74.3262 32.3852 74.6065 32.9554C74.8964 33.5159 75.2974 33.9555 75.8096 34.2744C76.3314 34.5933 76.9305 34.7528 77.6069 34.7528C78.293 34.7528 78.8777 34.5788 79.3608 34.231C79.844 33.8734 80.1871 33.4241 80.39 32.8829L82.1584 33.7091C81.9748 34.2213 81.6704 34.6948 81.2452 35.1296C80.82 35.5548 80.2982 35.8979 79.6797 36.1588C79.0709 36.4197 78.38 36.5502 77.6069 36.5502ZM87.3135 36.5502C86.5405 36.5502 85.835 36.3714 85.1973 36.0138C84.5691 35.6563 84.0666 35.1683 83.6898 34.5498C83.3226 33.9314 83.139 33.226 83.139 32.4336C83.139 31.6412 83.3226 30.9357 83.6898 30.3173C84.0666 29.6988 84.5691 29.2108 85.1973 28.8533C85.8254 28.4957 86.5308 28.317 87.3135 28.317C88.0866 28.317 88.7872 28.4957 89.4153 28.8533C90.0434 29.2108 90.5411 29.6988 90.9083 30.3173C91.2852 30.9261 91.4736 31.6315 91.4736 32.4336C91.4736 33.226 91.2852 33.9314 90.9083 34.5498C90.5314 35.1683 90.0289 35.6563 89.4008 36.0138C88.7727 36.3714 88.0769 36.5502 87.3135 36.5502ZM87.3135 34.8108C87.7387 34.8108 88.1108 34.7093 88.4296 34.5064C88.7582 34.3034 89.0143 34.0232 89.1979 33.6656C89.3912 33.2984 89.4878 32.8877 89.4878 32.4336C89.4878 31.9697 89.3912 31.5639 89.1979 31.216C89.0143 30.8584 88.7582 30.5782 88.4296 30.3753C88.1108 30.1627 87.7387 30.0564 87.3135 30.0564C86.8787 30.0564 86.497 30.1627 86.1684 30.3753C85.8399 30.5782 85.579 30.8584 85.3857 31.216C85.2021 31.5639 85.1103 31.9697 85.1103 32.4336C85.1103 32.8877 85.2021 33.2984 85.3857 33.6656C85.579 34.0232 85.8399 34.3034 86.1684 34.5064C86.497 34.7093 86.8787 34.8108 87.3135 34.8108ZM92.9136 36.3762V28.4909H94.6965V30.0419L94.5515 29.7665C94.7351 29.293 95.0347 28.9354 95.4502 28.6938C95.8754 28.4426 96.3683 28.317 96.9287 28.317C97.5085 28.317 98.0207 28.4426 98.4652 28.6938C98.9194 28.9451 99.2721 29.2978 99.5233 29.752C99.7746 30.1965 99.9002 30.7135 99.9002 31.303V36.3762H98.0014V31.7523C98.0014 31.4044 97.9337 31.1049 97.7984 30.8536C97.6631 30.6024 97.4747 30.4091 97.2331 30.2738C97.0012 30.1289 96.7258 30.0564 96.4069 30.0564C96.0977 30.0564 95.8223 30.1289 95.5807 30.2738C95.3391 30.4091 95.1507 30.6024 95.0154 30.8536C94.8801 31.1049 94.8125 31.4044 94.8125 31.7523V36.3762H92.9136ZM105.101 36.4632C104.212 36.4632 103.521 36.2216 103.028 35.7384C102.545 35.2456 102.303 34.5547 102.303 33.6656V30.1868H100.941V28.4909H101.086C101.472 28.4909 101.772 28.3894 101.984 28.1865C102.197 27.9836 102.303 27.6889 102.303 27.3023V26.6935H104.202V28.4909H106.014V30.1868H104.202V33.5642C104.202 33.8251 104.245 34.0473 104.332 34.231C104.429 34.4146 104.574 34.5547 104.767 34.6513C104.97 34.7479 105.226 34.7963 105.536 34.7963C105.603 34.7963 105.68 34.7914 105.767 34.7818C105.864 34.7721 105.956 34.7624 106.043 34.7528V36.3762C105.908 36.3955 105.753 36.4149 105.579 36.4342C105.405 36.4535 105.246 36.4632 105.101 36.4632ZM107.494 36.3762V28.4909H109.276V30.2448L109.132 29.9839C109.315 29.3944 109.6 28.9837 109.987 28.7518C110.383 28.5199 110.856 28.4039 111.407 28.4039H111.871V30.0854H111.19C110.649 30.0854 110.214 30.2545 109.885 30.5927C109.557 30.9212 109.392 31.3851 109.392 31.9842V36.3762H107.494ZM112.915 36.3762V28.4909H114.814V36.3762H112.915ZM112.915 27.6067V25.5774H114.814V27.6067H112.915ZM120.872 36.5502C120.302 36.5502 119.775 36.439 119.292 36.2168C118.819 35.9849 118.442 35.6563 118.162 35.2311L118.35 34.8542V36.3762H116.567V25.4035H118.466V30.0564L118.176 29.665C118.447 29.2398 118.814 28.9113 119.278 28.6793C119.742 28.4378 120.278 28.317 120.887 28.317C121.631 28.317 122.302 28.5006 122.901 28.8678C123.501 29.235 123.974 29.7278 124.322 30.3463C124.68 30.9647 124.858 31.6605 124.858 32.4336C124.858 33.197 124.684 33.8927 124.336 34.5209C123.989 35.149 123.515 35.6466 122.916 36.0138C122.317 36.3714 121.636 36.5502 120.872 36.5502ZM120.655 34.8108C121.09 34.8108 121.476 34.7093 121.814 34.5064C122.153 34.3034 122.413 34.0232 122.597 33.6656C122.79 33.3081 122.887 32.8974 122.887 32.4336C122.887 31.9697 122.79 31.5639 122.597 31.216C122.413 30.8584 122.153 30.5782 121.814 30.3753C121.476 30.1627 121.09 30.0564 120.655 30.0564C120.239 30.0564 119.862 30.1578 119.524 30.3608C119.196 30.5637 118.935 30.8488 118.741 31.216C118.558 31.5735 118.466 31.9794 118.466 32.4336C118.466 32.8974 118.558 33.3081 118.741 33.6656C118.935 34.0232 119.196 34.3034 119.524 34.5064C119.862 34.7093 120.239 34.8108 120.655 34.8108ZM129.118 36.5502C128.509 36.5502 127.978 36.4149 127.524 36.1443C127.079 35.8737 126.736 35.4969 126.494 35.0137C126.263 34.5305 126.147 33.9652 126.147 33.3178V28.4909H128.045V33.1583C128.045 33.4869 128.108 33.7768 128.234 34.028C128.369 34.2696 128.558 34.4629 128.799 34.6078C129.05 34.7431 129.331 34.8108 129.64 34.8108C129.949 34.8108 130.224 34.7431 130.466 34.6078C130.708 34.4629 130.896 34.2648 131.031 34.0135C131.167 33.7623 131.234 33.4627 131.234 33.1148V28.4909H133.133V36.3762H131.336V34.8253L131.495 35.1007C131.312 35.5838 131.007 35.9462 130.582 36.1878C130.167 36.4294 129.679 36.5502 129.118 36.5502ZM138.493 36.4632C137.604 36.4632 136.913 36.2216 136.42 35.7384C135.937 35.2456 135.696 34.5547 135.696 33.6656V30.1868H134.333V28.4909H134.478C134.864 28.4909 135.164 28.3894 135.377 28.1865C135.589 27.9836 135.696 27.6889 135.696 27.3023V26.6935H137.594V28.4909H139.406V30.1868H137.594V33.5642C137.594 33.8251 137.638 34.0473 137.725 34.231C137.821 34.4146 137.966 34.5547 138.16 34.6513C138.363 34.7479 138.619 34.7963 138.928 34.7963C138.996 34.7963 139.073 34.7914 139.16 34.7818C139.256 34.7721 139.348 34.7624 139.435 34.7528V36.3762C139.3 36.3955 139.145 36.4149 138.971 36.4342C138.797 36.4535 138.638 36.4632 138.493 36.4632ZM140.886 36.3762V28.4909H142.785V36.3762H140.886ZM140.886 27.6067V25.5774H142.785V27.6067H140.886ZM148.394 36.5502C147.621 36.5502 146.915 36.3714 146.277 36.0138C145.649 35.6563 145.147 35.1683 144.77 34.5498C144.403 33.9314 144.219 33.226 144.219 32.4336C144.219 31.6412 144.403 30.9357 144.77 30.3173C145.147 29.6988 145.649 29.2108 146.277 28.8533C146.906 28.4957 147.611 28.317 148.394 28.317C149.167 28.317 149.867 28.4957 150.496 28.8533C151.124 29.2108 151.621 29.6988 151.989 30.3173C152.365 30.9261 152.554 31.6315 152.554 32.4336C152.554 33.226 152.365 33.9314 151.989 34.5498C151.612 35.1683 151.109 35.6563 150.481 36.0138C149.853 36.3714 149.157 36.5502 148.394 36.5502ZM148.394 34.8108C148.819 34.8108 149.191 34.7093 149.51 34.5064C149.838 34.3034 150.094 34.0232 150.278 33.6656C150.471 33.2984 150.568 32.8877 150.568 32.4336C150.568 31.9697 150.471 31.5639 150.278 31.216C150.094 30.8584 149.838 30.5782 149.51 30.3753C149.191 30.1627 148.819 30.0564 148.394 30.0564C147.959 30.0564 147.577 30.1627 147.249 30.3753C146.92 30.5782 146.659 30.8584 146.466 31.216C146.282 31.5639 146.19 31.9697 146.19 32.4336C146.19 32.8877 146.282 33.2984 146.466 33.6656C146.659 34.0232 146.92 34.3034 147.249 34.5064C147.577 34.7093 147.959 34.8108 148.394 34.8108ZM153.994 36.3762V28.4909H155.777V30.0419L155.632 29.7665C155.815 29.293 156.115 28.9354 156.53 28.6938C156.956 28.4426 157.448 28.317 158.009 28.317C158.589 28.317 159.101 28.4426 159.545 28.6938C160 28.9451 160.352 29.2978 160.604 29.752C160.855 30.1965 160.98 30.7135 160.98 31.303V36.3762H159.082V31.7523C159.082 31.4044 159.014 31.1049 158.879 30.8536C158.743 30.6024 158.555 30.4091 158.313 30.2738C158.081 30.1289 157.806 30.0564 157.487 30.0564C157.178 30.0564 156.902 30.1289 156.661 30.2738C156.419 30.4091 156.231 30.6024 156.096 30.8536C155.96 31.1049 155.893 31.4044 155.893 31.7523V36.3762H153.994ZM165.587 36.5502C164.746 36.5502 164.011 36.3521 163.383 35.9559C162.765 35.55 162.34 35.004 162.108 34.3179L163.528 33.6367C163.731 34.0812 164.011 34.4291 164.369 34.6803C164.736 34.9315 165.142 35.0572 165.587 35.0572C165.934 35.0572 166.21 34.9799 166.413 34.8253C166.616 34.6706 166.717 34.4677 166.717 34.2165C166.717 34.0618 166.674 33.9362 166.587 33.8396C166.509 33.7333 166.398 33.6463 166.253 33.5787C166.118 33.5014 165.968 33.4386 165.804 33.3902L164.514 33.0279C163.847 32.8346 163.34 32.5399 162.992 32.1437C162.654 31.7475 162.485 31.2788 162.485 30.7376C162.485 30.2545 162.605 29.8341 162.847 29.4766C163.098 29.1094 163.441 28.8243 163.876 28.6214C164.321 28.4184 164.828 28.317 165.398 28.317C166.142 28.317 166.799 28.4957 167.369 28.8533C167.94 29.2108 168.345 29.7133 168.587 30.3608L167.138 31.042C167.002 30.6845 166.775 30.3994 166.456 30.1868C166.137 29.9742 165.78 29.8679 165.384 29.8679C165.065 29.8679 164.814 29.9404 164.63 30.0854C164.446 30.2303 164.354 30.4188 164.354 30.6507C164.354 30.7956 164.393 30.9212 164.47 31.0275C164.548 31.1338 164.654 31.2208 164.789 31.2885C164.934 31.3561 165.099 31.4189 165.282 31.4769L166.543 31.8538C167.191 32.047 167.688 32.3369 168.036 32.7235C168.394 33.11 168.573 33.5835 168.573 34.144C168.573 34.6175 168.447 35.0378 168.196 35.4051C167.944 35.7626 167.597 36.0428 167.152 36.2458C166.708 36.4487 166.186 36.5502 165.587 36.5502Z" fill="#18181B"/>
</svg>
