<svg width="23" height="23" viewBox="0 0 23 23" fill="none" xmlns="http://www.w3.org/2000/svg">
<path d="M11.2654 15.9706C11.4288 15.9706 11.5657 15.9155 11.6761 15.8051C11.7858 15.6947 11.8407 15.5581 11.8407 15.3954C11.8407 15.232 11.7855 15.0951 11.6752 14.9847C11.5648 14.8743 11.4282 14.8195 11.2654 14.8201C11.1027 14.8207 10.9661 14.8759 10.8557 14.9857C10.7453 15.0954 10.6902 15.2323 10.6902 15.3963C10.6902 15.5603 10.7453 15.6969 10.8557 15.806C10.9661 15.9151 11.1027 15.9694 11.2654 15.9706ZM10.7977 13.2018H11.7331V7.51542H10.7977V13.2018ZM3.7821 19.2446V4.27794H9.6902C9.60476 3.80025 9.71888 3.36902 10.0326 2.98426C10.3456 2.59949 10.7597 2.4071 11.2748 2.4071C11.7899 2.4071 12.204 2.59949 12.517 2.98426C12.8301 3.36902 12.9383 3.80025 12.8416 4.27794H18.7488V19.2446H3.7821ZM4.71752 18.3092H17.8134V5.21335H4.71752V18.3092ZM11.2654 4.69139C11.4681 4.69139 11.6359 4.62529 11.7687 4.49308C11.9015 4.36088 11.9676 4.19313 11.967 3.98983C11.9664 3.78653 11.9 3.61909 11.7678 3.48751C11.6356 3.35593 11.4681 3.28951 11.2654 3.28827C11.0628 3.28702 10.8953 3.35343 10.7631 3.48751C10.6309 3.62159 10.5645 3.78903 10.5639 3.98983C10.5633 4.19063 10.6297 4.35838 10.7631 4.49308C10.8966 4.62778 11.064 4.69389 11.2654 4.69139Z" fill="white"/>
</svg>
