<svg width="23" height="23" viewBox="0 0 23 23" fill="none" xmlns="http://www.w3.org/2000/svg">
<path fill-rule="evenodd" clip-rule="evenodd" d="M16.4021 3.03018C17.1179 3.03014 17.8066 3.30363 18.3274 3.79468C18.8482 4.28574 19.1617 4.95724 19.2037 5.6718L19.2083 5.83643V9.90549L19.764 9.65854C20.3383 9.40318 21.0006 9.79886 21.0736 10.405L21.0792 10.5135V17.9968C21.0793 18.4688 20.9011 18.9234 20.5801 19.2695C20.2592 19.6156 19.8193 19.8276 19.3487 19.863L19.2083 19.8677H4.24168C3.76969 19.8678 3.31509 19.6896 2.969 19.3686C2.62292 19.0477 2.41093 18.6078 2.37553 18.1372L2.37085 17.9968V10.5135C2.37085 9.88491 3.00226 9.44059 3.58408 9.62019L3.68698 9.65854L4.24168 9.90549V5.83643C4.24164 5.12064 4.51513 4.43189 5.00618 3.9111C5.49724 3.39031 6.16874 3.07685 6.8833 3.03486L7.04793 3.03018H16.4021ZM19.2083 11.9531L12.4846 14.9408C12.2454 15.0471 11.9867 15.102 11.725 15.102C11.4633 15.102 11.2046 15.0471 10.9655 14.9408L4.24168 11.9541V17.9968H19.2083V11.9531ZM16.4021 4.90102H7.04793C6.79984 4.90102 6.56192 4.99957 6.38649 5.17499C6.21107 5.35042 6.11252 5.58834 6.11252 5.83643V10.7371L11.725 13.2318L17.3375 10.7371V5.83643C17.3375 5.58834 17.239 5.35042 17.0635 5.17499C16.8881 4.99957 16.6502 4.90102 16.4021 4.90102ZM11.725 7.70726C11.9634 7.70753 12.1928 7.79882 12.3661 7.96249C12.5395 8.12616 12.6438 8.34985 12.6578 8.58786C12.6718 8.82587 12.5943 9.06023 12.4413 9.24306C12.2883 9.42589 12.0712 9.54339 11.8345 9.57155L11.725 9.5781H9.85418C9.61576 9.57783 9.38644 9.48654 9.21308 9.32287C9.03971 9.1592 8.93538 8.93551 8.92141 8.6975C8.90744 8.45949 8.98488 8.22513 9.1379 8.0423C9.29093 7.85947 9.50799 7.74197 9.74474 7.71381L9.85418 7.70726H11.725Z" fill="#F8F8F8"/>
</svg>
